<svg xmlns="http://www.w3.org/2000/svg" width="33.75" height="33.75" viewBox="0 0 33.75 33.75">
  <g id="user-avatar-filled-alt" transform="translate(-2.25 -2.25)">
    <path id="Path_3" data-name="Path 3" d="M19.125,2.25A16.875,16.875,0,1,0,36,19.125,16.875,16.875,0,0,0,19.125,2.25Zm9.643,27.626v-.733a6.279,6.279,0,0,0-6.027-6.4H15.509a6.268,6.268,0,0,0-6.015,6.4c0,.013-.012.027-.012.04v.7a14.471,14.471,0,1,1,19.286-.012Z" transform="translate(0 0)" fill="#2b7a78"/>
    <path id="Path_4" data-name="Path 4" d="M18,7.875A5.625,5.625,0,1,0,23.625,13.5,5.625,5.625,0,0,0,18,7.875Z" transform="translate(1.125 0.625)" fill="#2b7a78"/>
  </g>
</svg>
