<svg xmlns="http://www.w3.org/2000/svg" width="33.75" height="33.75" viewBox="0 0 33.75 33.75">
  <g id="book" transform="translate(5.247 5.747)">
    <path id="Path_5" data-name="Path 5" d="M9.274,4.513A16.146,16.146,0,0,0,2.525,3.375a1.372,1.372,0,0,0-.784.233,1.4,1.4,0,0,0-.616,1.162V17.289a1.413,1.413,0,0,0,1.4,1.485c3.11,0,6.229.291,8.1,2.057a.18.18,0,0,0,.3-.131V5.949a.7.7,0,0,0-.239-.525,6.257,6.257,0,0,0-1.413-.911Z" transform="translate(0 0)" fill="#3AAFA9"/>
    <path id="Path_6" data-name="Path 6" d="M28.31,3.607a1.371,1.371,0,0,0-.784-.232,16.116,16.116,0,0,0-6.749,1.138,6.27,6.27,0,0,0-1.414.909.7.7,0,0,0-.238.525V20.7a.172.172,0,0,0,.292.123c1.123-1.116,3.095-2.049,8.111-2.048a1.4,1.4,0,0,0,1.4-1.4V4.771a1.4,1.4,0,0,0-.618-1.164Z" transform="translate(-6.798 0)" fill="#3AAFA9"/>
    <path id="Path_2" data-name="Path 2" d="M18,1.125A16.875,16.875,0,1,0,34.875,18,16.875,16.875,0,0,0,18,1.125Zm0,31.5A14.625,14.625,0,1,1,32.625,18,14.625,14.625,0,0,1,18,32.625Z" transform="translate(-6.372 -6.872)" fill="#3AAFA9"/>
  </g>
</svg>
