<svg id="id-card" xmlns="http://www.w3.org/2000/svg" width="30.181" height="21.221" viewBox="0 0 30.181 21.221">
  <path id="Path_165" data-name="Path 165" d="M93.653,296A2.656,2.656,0,0,0,91,298.653v.884h5.305v-.884A2.656,2.656,0,0,0,93.653,296Z" transform="translate(-85.636 -283.031)" fill="#3aafa9"/>
  <ellipse id="Ellipse_23" data-name="Ellipse 23" cx="1.189" cy="0.595" rx="1.189" ry="0.595" transform="translate(7.134 9.632)" fill="#3aafa9"/>
  <path id="Path_166" data-name="Path 166" d="M0,166v13.263a2.656,2.656,0,0,0,2.653,2.653H27.529a2.656,2.656,0,0,0,2.653-2.653V166Zm12.438,12.084a.884.884,0,0,1-.884.884H4.48a.884.884,0,0,1-.884-.884v-1.768a4.423,4.423,0,0,1,2.227-3.836,2.682,2.682,0,1,1,4.429.024,4.423,4.423,0,0,1,2.185,3.812Zm6.19,0H15.091a.884.884,0,1,1,0-1.768h3.537a.884.884,0,1,1,0,1.768Zm7.074.059H22.164a.884.884,0,0,1,0-1.768H25.7a.884.884,0,0,1,0,1.768Zm0-3.6H15.091a.884.884,0,1,1,0-1.768H25.7a.884.884,0,1,1,0,1.768Zm0-3.6H15.091a.884.884,0,0,1,0-1.768H25.7a.884.884,0,0,1,0,1.768Z" transform="translate(0 -160.695)" fill="#3aafa9"/>
  <path id="Path_167" data-name="Path 167" d="M30.181,79.537v-.884A2.656,2.656,0,0,0,27.529,76H2.653A2.656,2.656,0,0,0,0,78.653v.884Z" transform="translate(0 -76)" fill="#3aafa9"/>
</svg>
