<svg id="museum" xmlns="http://www.w3.org/2000/svg" width="24.18" height="24.18" viewBox="0 0 24.18 24.18">
  <path id="Path_168" data-name="Path 168" d="M396.426,268.344h2.833v6.784h-2.833Zm0,0" transform="translate(-377.704 -255.671)" fill="#0a6cb4"/>
  <path id="Path_169" data-name="Path 169" d="M282.809,268.344h2.834v6.784h-2.834Zm0,0" transform="translate(-269.453 -255.671)" fill="#0a6cb4"/>
  <path id="Path_170" data-name="Path 170" d="M169.191,268.344h2.834v6.784h-2.834Zm0,0" transform="translate(-161.201 -255.671)" fill="#0a6cb4"/>
  <path id="Path_171" data-name="Path 171" d="M55.578,268.344h2.833v6.784H55.578Zm0,0" transform="translate(-52.953 -255.671)" fill="#0a6cb4"/>
  <path id="Path_172" data-name="Path 172" d="M56.4,209.052v-.708H35.578v.708a.708.708,0,0,0,.708.708h19.4A.708.708,0,0,0,56.4,209.052Zm0,0" transform="translate(-33.898 -198.505)" fill="#0a6cb4"/>
  <path id="Path_173" data-name="Path 173" d="M23.486,442H.724a.708.708,0,0,0-.708.708V444.6a.708.708,0,0,0,.708.708H23.486a.708.708,0,0,0,.708-.708v-1.889A.708.708,0,0,0,23.486,442Zm0,0" transform="translate(-0.015 -421.126)" fill="#0a6cb4"/>
  <path id="Path_174" data-name="Path 174" d="M.71,8.422H23.473a.708.708,0,0,0,.371-1.312L12.462.105a.708.708,0,0,0-.743,0L.338,7.111A.708.708,0,0,0,.71,8.422Zm10.9-4.256h.963a.708.708,0,1,1,0,1.417H11.61a.708.708,0,1,1,0-1.417Zm0,0" transform="translate(-0.001)" fill="#0a6cb4"/>
</svg>
