<svg xmlns="http://www.w3.org/2000/svg" width="19.999" height="20" viewBox="0 0 19.999 20">
  <path id="phone" d="M19.722,16.631l-2.82,2.8A2.04,2.04,0,0,1,15.4,20a13.041,13.041,0,0,1-6.466-2.437A24.941,24.941,0,0,1,1.383,9.331,10.652,10.652,0,0,1,.005,4.637,2.053,2.053,0,0,1,.577,3.111L3.4.293A.933.933,0,0,1,4.924.547l2.268,4.3a1.249,1.249,0,0,1-.254,1.42L5.9,7.307a.512.512,0,0,0-.106.3,8.856,8.856,0,0,0,2.671,3.942c1.066.978,2.212,2.3,3.7,2.617a.586.586,0,0,0,.541-.053l1.208-1.229a1.38,1.38,0,0,1,1.463-.212H15.4l4.092,2.416a.985.985,0,0,1,.233,1.547Z" transform="translate(0 0)" fill="#3aafa9"/>
</svg>
