<svg id="Layer_1" data-name="Layer 1" xmlns="http://www.w3.org/2000/svg" viewBox="0 0 636 200"><defs><style>.cls-1{fill:#e85237;}.cls-2{fill:#fff;}.cls-3{fill:#2f4858;}</style></defs><rect class="cls-1" x="36.21" y="32.77" width="133.32" height="133.32" rx="23.9" transform="translate(100.44 -43.62) rotate(45)"/><rect class="cls-2" x="77.86" y="109.55" width="66.59" height="42.44" rx="5.63" transform="translate(-59.91 116.9) rotate(-45)"/><rect class="cls-2" x="60.92" y="46.92" width="66.59" height="42.44" rx="5.63" transform="translate(-20.59 86.57) rotate(-45)"/><path class="cls-3" d="M252.11,92.13c-4,0-6.5,1.43-6.5,4.13,0,9.68,45.07,5.39,45.07,34.91,0,17.78-15.39,28.57-37.93,28.57-15.24,0-29.36-4.13-40.63-12.22L222,127.36c10.79,7,21.74,10.64,31.27,10.64,4.28,0,7.14-1.27,7.14-4,0-9.84-44.12-5.08-44.12-34.6,0-18.09,15.07-28.88,36.82-28.88A76,76,0,0,1,291,81l-10.64,20.16C268.62,95.15,258.94,92.13,252.11,92.13Z"/><path class="cls-3" d="M395.9,103.56v54.75H363.84V112.76c0-8.57-4.76-14-12.38-14-8.73.16-14.12,7-14.12,16.82v42.69H305.28V40.55h32.06V85.31c6-9.52,15.39-14.6,27.45-14.6C383.36,70.71,395.9,83.56,395.9,103.56Z"/><path class="cls-3" d="M496.67,122.92H438.59c2.53,8.25,8.57,12.85,16.82,12.85,6.82,0,13.33-3,19-8.25l16.67,16.35c-9.05,10-22.06,15.55-38.41,15.55-28.88,0-46.5-17.46-46.5-44,0-27,18.25-44.59,45.55-44.59C482.07,70.87,498.58,91.18,496.67,122.92ZM452.08,92.61c-7.62,0-12.54,5.87-14.13,14.6h27.14C465.25,98.64,459.85,92.61,452.08,92.61Z"/><path class="cls-3" d="M542.37,40.55V158.31H510.32V40.55Z"/><path class="cls-3" d="M600.3,72.29v4.13h17.93V96.89H600.3v61.42H568.56V96.89H556.81V76.42h11.75V68.48c0-18.4,14.12-29.51,34.44-29.36,9.2,0,19.52,2.23,26.5,6.19l-11,22.06a17.26,17.26,0,0,0-9.2-3.33C604,64,600.3,67.06,600.3,72.29Z"/></svg>